<svg xmlns="http://www.w3.org/2000/svg" width="853" height="333" viewBox="0 0 853.25 333.25" fill="none" role="img" aria-labelledby="title desc">
  <title id="title">Videira logo</title>
  <desc id="desc">Versao vetorial em tracado do lettering Videira com iconografia de uvas.</desc>
  <g fill="#FFFFFF" fill-rule="evenodd">
    <path d="M 381.63 130.50 L 385.63 131.00 L 388.63 132.06 L 390.63 133.69 L 391.63 135.88 L 391.63 138.63 L 391.50 140.75 L 391.25 142.25 L 390.88 143.13 L 390.38 143.38 L 389.69 145.31 L 388.81 148.94 L 387.75 154.25 L 386.50 161.25 L 385.44 166.56 L 384.56 170.19 L 383.88 172.13 L 383.38 172.38 L 383.00 173.00 L 382.75 174.00 L 382.63 175.38 L 382.63 177.13 L 382.50 178.50 L 382.25 179.50 L 381.88 180.13 L 381.38 180.38 L 380.81 181.69 L 380.19 184.06 L 379.50 187.50 L 378.75 192.00 L 377.94 196.00 L 377.06 199.50 L 376.13 202.50 L 375.13 205.00 L 374.38 207.31 L 373.88 209.44 L 373.63 211.38 L 373.63 213.13 L 373.50 214.44 L 373.25 215.31 L 372.88 215.75 L 372.38 215.75 L 372.00 216.31 L 371.75 217.44 L 371.63 219.13 L 371.63 221.38 L 371.50 223.19 L 371.25 224.56 L 370.88 225.50 L 370.38 226.00 L 369.81 227.63 L 369.19 230.38 L 368.50 234.25 L 367.75 239.25 L 367.06 243.13 L 366.44 245.88 L 365.88 247.50 L 365.38 248.00 L 365.00 248.88 L 364.75 250.13 L 364.63 251.75 L 364.63 253.75 L 364.50 255.31 L 364.25 256.44 L 363.88 257.13 L 363.38 257.38 L 362.75 259.31 L 362.00 262.94 L 361.13 268.25 L 360.13 275.25 L 359.38 281.19 L 358.88 286.06 L 358.63 289.88 L 358.63 292.63 L 358.75 294.94 L 359.00 296.81 L 359.38 298.25 L 359.88 299.25 L 360.94 300.00 L 362.56 300.50 L 364.75 300.75 L 367.50 300.75 L 369.56 300.63 L 370.94 300.38 L 371.63 300.00 L 371.63 299.50 L 372.06 298.94 L 372.94 298.31 L 374.25 297.63 L 376.00 296.88 L 377.31 296.19 L 378.19 295.56 L 378.63 295.00 L 378.63 294.50 L 378.75 294.13 L 379.00 293.88 L 379.38 293.75 L 379.88 293.75 L 380.25 293.63 L 380.50 293.38 L 380.63 293.00 L 380.63 292.50 L 380.75 292.13 L 381.00 291.88 L 381.38 291.75 L 381.88 291.75 L 382.25 291.63 L 382.50 291.38 L 382.63 291.00 L 382.63 290.50 L 383.19 289.69 L 384.31 288.56 L 386.00 287.13 L 388.25 285.38 L 390.00 283.25 L 391.25 280.75 L 392.00 277.88 L 392.25 274.63 L 392.56 271.75 L 392.94 269.25 L 393.38 267.13 L 393.88 265.38 L 394.38 264.00 L 394.88 263.00 L 395.38 262.38 L 395.88 262.13 L 396.25 261.63 L 396.50 260.88 L 396.63 259.88 L 396.63 258.63 L 396.75 257.63 L 397.00 256.88 L 397.38 256.38 L 397.88 256.13 L 398.25 255.75 L 398.50 255.25 L 398.63 254.63 L 398.63 253.88 L 398.75 253.31 L 399.00 252.94 L 399.38 252.75 L 399.88 252.75 L 400.44 252.13 L 401.06 250.88 L 401.75 249.00 L 402.50 246.50 L 403.31 244.44 L 404.19 242.81 L 405.13 241.63 L 406.13 240.88 L 407.19 239.75 L 408.31 238.25 L 409.50 236.38 L 410.75 234.13 L 411.81 232.44 L 412.69 231.31 L 413.38 230.75 L 413.88 230.75 L 414.25 230.63 L 414.50 230.38 L 414.63 230.00 L 414.63 229.50 L 414.75 229.13 L 415.00 228.88 L 415.38 228.75 L 415.88 228.75 L 416.25 228.63 L 416.50 228.38 L 416.63 228.00 L 416.63 227.50 L 416.75 227.13 L 417.00 226.88 L 417.38 226.75 L 417.88 226.75 L 418.50 226.44 L 419.25 225.81 L 420.13 224.88 L 421.13 223.63 L 422.19 222.56 L 423.31 221.69 L 424.50 221.00 L 425.75 220.50 L 426.69 220.00 L 427.31 219.50 L 427.63 219.00 L 427.63 218.50 L 428.94 217.56 L 431.56 216.19 L 435.50 214.38 L 440.75 212.13 L 445.94 210.44 L 451.06 209.31 L 456.13 208.75 L 461.13 208.75 L 465.00 208.88 L 467.75 209.13 L 469.38 209.50 L 469.88 210.00 L 470.63 210.38 L 471.63 210.63 L 472.88 210.75 L 474.38 210.75 L 476.25 211.25 L 478.50 212.25 L 481.13 213.75 L 484.13 215.75 L 486.69 217.88 L 488.81 220.13 L 490.50 222.50 L 491.75 225.00 L 492.63 227.94 L 493.13 231.31 L 493.25 235.13 L 493.00 239.38 L 492.69 242.63 L 492.31 244.88 L 491.88 246.13 L 491.38 246.38 L 491.00 246.81 L 490.75 247.44 L 490.63 248.25 L 490.63 249.25 L 490.50 250.00 L 490.25 250.50 L 489.88 250.75 L 489.38 250.75 L 488.63 251.31 L 487.63 252.44 L 486.38 254.13 L 484.88 256.38 L 482.50 258.88 L 479.25 261.63 L 475.13 264.63 L 470.13 267.88 L 464.63 270.94 L 458.63 273.81 L 452.13 276.50 L 445.13 279.00 L 439.88 281.13 L 436.38 282.88 L 434.63 284.25 L 434.63 285.25 L 434.75 286.06 L 435.00 286.69 L 435.38 287.13 L 435.88 287.38 L 436.38 288.00 L 436.88 289.00 L 437.38 290.38 L 437.88 292.13 L 438.56 293.69 L 439.44 295.06 L 440.50 296.25 L 441.75 297.25 L 442.69 298.13 L 443.31 298.88 L 443.63 299.50 L 443.63 300.00 L 443.75 300.38 L 444.00 300.63 L 444.38 300.75 L 444.88 300.75 L 445.25 300.88 L 445.50 301.13 L 445.63 301.50 L 445.63 302.00 L 445.94 302.50 L 446.56 303.00 L 447.50 303.50 L 448.75 304.00 L 450.38 304.38 L 452.38 304.63 L 454.75 304.75 L 457.50 304.75 L 459.69 304.63 L 461.31 304.38 L 462.38 304.00 L 462.88 303.50 L 463.50 303.13 L 464.25 302.88 L 465.13 302.75 L 466.13 302.75 L 467.63 302.25 L 469.63 301.25 L 472.13 299.75 L 475.13 297.75 L 478.38 295.25 L 481.88 292.25 L 485.63 288.75 L 489.63 284.75 L 492.63 281.25 L 494.63 278.25 L 495.63 275.75 L 495.63 273.75 L 495.75 272.19 L 496.00 271.06 L 496.38 270.38 L 496.88 270.13 L 497.44 268.75 L 498.06 266.25 L 498.75 262.63 L 499.50 257.88 L 500.31 253.88 L 501.19 250.63 L 502.13 248.13 L 503.13 246.38 L 503.88 244.75 L 504.38 243.25 L 504.63 241.88 L 504.63 240.63 L 504.75 239.63 L 505.00 238.88 L 505.38 238.38 L 505.88 238.13 L 506.56 236.75 L 507.44 234.25 L 508.50 230.63 L 509.75 225.88 L 511.06 222.06 L 512.44 219.19 L 513.88 217.25 L 515.38 216.25 L 517.56 215.38 L 520.44 214.63 L 524.00 214.00 L 528.25 213.50 L 531.50 213.00 L 533.75 212.50 L 535.00 212.00 L 535.25 211.50 L 535.88 211.13 L 536.88 210.88 L 538.25 210.75 L 540.00 210.75 L 541.44 210.63 L 542.56 210.38 L 543.38 210.00 L 543.88 209.50 L 544.94 209.13 L 546.56 208.88 L 548.75 208.75 L 551.50 208.75 L 553.75 208.88 L 555.50 209.13 L 556.75 209.50 L 557.50 210.00 L 558.06 210.63 L 558.44 211.38 L 558.63 212.25 L 558.63 213.25 L 558.50 214.13 L 558.25 214.88 L 557.88 215.50 L 557.38 216.00 L 556.94 216.88 L 556.56 218.13 L 556.25 219.75 L 556.00 221.75 L 555.69 223.31 L 555.31 224.44 L 554.88 225.13 L 554.38 225.38 L 554.00 225.88 L 553.75 226.63 L 553.63 227.63 L 553.63 228.88 L 553.50 229.88 L 553.25 230.63 L 552.88 231.13 L 552.38 231.38 L 552.00 231.88 L 551.75 232.63 L 551.63 233.63 L 551.63 234.88 L 551.50 235.88 L 551.25 236.63 L 550.88 237.13 L 550.38 237.38 L 549.81 238.50 L 549.19 240.50 L 548.50 243.38 L 547.75 247.13 L 547.06 250.00 L 546.44 252.00 L 545.88 253.13 L 545.38 253.38 L 545.00 253.94 L 544.75 254.81 L 544.63 256.00 L 544.63 257.50 L 544.50 258.69 L 544.25 259.56 L 543.88 260.13 L 543.38 260.38 L 543.00 260.88 L 542.75 261.63 L 542.63 262.63 L 542.63 263.88 L 542.50 264.88 L 542.25 265.63 L 541.88 266.13 L 541.38 266.38 L 541.00 266.94 L 540.75 267.81 L 540.63 269.00 L 540.63 270.50 L 540.50 271.75 L 540.25 272.75 L 539.88 273.50 L 539.38 274.00 L 538.88 275.31 L 538.38 277.44 L 537.88 280.38 L 537.38 284.13 L 537.13 287.50 L 537.13 290.50 L 537.38 293.13 L 537.88 295.38 L 538.50 297.06 L 539.25 298.19 L 540.13 298.75 L 541.13 298.75 L 541.88 298.63 L 542.38 298.38 L 542.63 298.00 L 542.63 297.50 L 543.06 296.94 L 543.94 296.31 L 545.25 295.63 L 547.00 294.88 L 548.31 294.19 L 549.19 293.56 L 549.63 293.00 L 549.63 292.50 L 549.75 292.13 L 550.00 291.88 L 550.38 291.75 L 550.88 291.75 L 551.25 291.63 L 551.50 291.38 L 551.63 291.00 L 551.63 290.50 L 552.19 289.69 L 553.31 288.56 L 555.00 287.13 L 557.25 285.38 L 559.94 282.81 L 563.06 279.44 L 566.63 275.25 L 570.63 270.25 L 573.63 266.31 L 575.63 263.44 L 576.63 261.63 L 576.63 260.88 L 576.44 260.31 L 576.06 259.94 L 575.50 259.75 L 574.75 259.75 L 574.19 259.63 L 573.81 259.38 L 573.63 259.00 L 573.63 258.50 L 573.38 258.00 L 572.88 257.50 L 572.13 257.00 L 571.13 256.50 L 570.13 255.56 L 569.13 254.19 L 568.13 252.38 L 567.13 250.13 L 566.50 247.63 L 566.25 244.88 L 566.38 241.88 L 566.88 238.63 L 567.38 236.13 L 567.88 234.38 L 568.38 233.38 L 568.88 233.13 L 569.31 232.44 L 569.69 231.31 L 570.00 229.75 L 570.25 227.75 L 570.69 225.88 L 571.31 224.13 L 572.13 222.50 L 573.13 221.00 L 574.69 219.25 L 576.81 217.25 L 579.50 215.00 L 582.75 212.50 L 586.25 210.63 L 590.00 209.38 L 594.00 208.75 L 598.25 208.75 L 601.94 209.13 L 605.06 209.88 L 607.63 211.00 L 609.63 212.50 L 611.13 214.75 L 612.13 217.75 L 612.63 221.50 L 612.63 226.00 L 612.50 229.44 L 612.25 231.81 L 611.88 233.13 L 611.38 233.38 L 611.00 233.94 L 610.75 234.81 L 610.63 236.00 L 610.63 237.50 L 610.88 238.63 L 611.38 239.38 L 612.13 239.75 L 613.13 239.75 L 614.00 239.50 L 614.75 239.00 L 615.38 238.25 L 615.88 237.25 L 616.69 236.31 L 617.81 235.44 L 619.25 234.63 L 621.00 233.88 L 622.50 232.88 L 623.75 231.63 L 624.75 230.13 L 625.50 228.38 L 626.31 226.94 L 627.19 225.81 L 628.13 225.00 L 629.13 224.50 L 629.88 223.94 L 630.38 223.31 L 630.63 222.63 L 630.63 221.88 L 631.06 220.63 L 631.94 218.88 L 633.25 216.63 L 635.00 213.88 L 637.63 211.81 L 641.13 210.44 L 645.50 209.75 L 650.75 209.75 L 654.75 210.00 L 657.50 210.50 L 659.00 211.25 L 659.25 212.25 L 659.19 213.38 L 658.81 214.63 L 658.13 216.00 L 657.13 217.50 L 656.19 219.50 L 655.31 222.00 L 654.50 225.00 L 653.75 228.50 L 653.06 231.19 L 652.44 233.06 L 651.88 234.13 L 651.38 234.38 L 651.00 234.81 L 650.75 235.44 L 650.63 236.25 L 650.63 237.25 L 650.38 238.38 L 649.88 239.63 L 649.13 241.00 L 648.13 242.50 L 647.31 244.13 L 646.69 245.88 L 646.25 247.75 L 646.00 249.75 L 645.69 251.31 L 645.31 252.44 L 644.88 253.13 L 644.38 253.38 L 644.00 253.88 L 643.75 254.63 L 643.63 255.63 L 643.63 256.88 L 643.50 257.88 L 643.25 258.63 L 642.88 259.13 L 642.38 259.38 L 642.00 259.88 L 641.75 260.63 L 641.63 261.63 L 641.63 262.88 L 641.50 263.81 L 641.25 264.44 L 640.88 264.75 L 640.38 264.75 L 640.00 265.06 L 639.75 265.69 L 639.63 266.63 L 639.63 267.88 L 639.50 268.88 L 639.25 269.63 L 638.88 270.13 L 638.38 270.38 L 637.81 271.31 L 637.19 272.94 L 636.50 275.25 L 635.75 278.25 L 635.19 281.38 L 634.81 284.63 L 634.63 288.00 L 634.63 291.50 L 634.81 294.38 L 635.19 296.63 L 635.75 298.25 L 636.50 299.25 L 637.88 299.56 L 639.88 299.19 L 642.50 298.13 L 645.75 296.38 L 648.19 294.94 L 649.81 293.81 L 650.63 293.00 L 650.63 292.50 L 651.38 291.50 L 652.88 290.00 L 655.13 288.00 L 658.13 285.50 L 660.81 282.06 L 663.19 277.69 L 665.25 272.38 L 667.00 266.13 L 668.69 261.00 L 670.31 257.00 L 671.88 254.13 L 673.38 252.38 L 674.50 250.88 L 675.25 249.63 L 675.63 248.63 L 675.63 247.88 L 675.75 247.31 L 676.00 246.94 L 676.38 246.75 L 676.88 246.75 L 677.44 246.31 L 678.06 245.44 L 678.75 244.13 L 679.50 242.38 L 680.19 241.06 L 680.81 240.19 L 681.38 239.75 L 681.88 239.75 L 682.25 239.63 L 682.50 239.38 L 682.63 239.00 L 682.63 238.50 L 682.75 238.13 L 683.00 237.88 L 683.38 237.75 L 683.88 237.75 L 684.25 237.63 L 684.50 237.38 L 684.63 237.00 L 684.63 236.50 L 684.75 236.13 L 685.00 235.88 L 685.38 235.75 L 685.88 235.75 L 686.69 235.19 L 687.81 234.06 L 689.25 232.38 L 691.00 230.13 L 692.88 228.13 L 694.88 226.38 L 697.00 224.88 L 699.25 223.63 L 700.94 222.56 L 702.06 221.69 L 702.63 221.00 L 702.63 220.50 L 704.00 219.44 L 706.75 217.81 L 710.88 215.63 L 716.38 212.88 L 721.94 210.81 L 727.56 209.44 L 733.25 208.75 L 739.00 208.75 L 743.75 208.88 L 747.50 209.13 L 750.25 209.50 L 752.00 210.00 L 753.31 210.50 L 754.19 211.00 L 754.63 211.50 L 754.63 212.00 L 755.00 212.50 L 755.75 213.00 L 756.88 213.50 L 758.38 214.00 L 759.69 214.81 L 760.81 215.94 L 761.75 217.38 L 762.50 219.13 L 764.44 219.63 L 767.56 218.88 L 771.88 216.88 L 777.38 213.63 L 782.44 211.19 L 787.06 209.56 L 791.25 208.75 L 795.00 208.75 L 797.88 209.38 L 799.88 210.63 L 801.00 212.50 L 801.25 215.00 L 801.31 216.94 L 801.19 218.31 L 800.88 219.13 L 800.38 219.38 L 800.00 219.88 L 799.75 220.63 L 799.63 221.63 L 799.63 222.88 L 799.50 223.81 L 799.25 224.44 L 798.88 224.75 L 798.38 224.75 L 797.69 226.25 L 796.81 229.25 L 795.75 233.75 L 794.50 239.75 L 793.44 244.25 L 792.56 247.25 L 791.88 248.75 L 791.38 248.75 L 791.00 249.13 L 790.75 249.88 L 790.63 251.00 L 790.63 252.50 L 790.50 253.69 L 790.25 254.56 L 789.88 255.13 L 789.38 255.38 L 788.94 256.25 L 788.56 257.75 L 788.25 259.88 L 788.00 262.63 L 787.69 264.81 L 787.31 266.44 L 786.88 267.50 L 786.38 268.00 L 786.00 268.75 L 785.75 269.75 L 785.63 271.00 L 785.63 272.50 L 785.50 273.69 L 785.25 274.56 L 784.88 275.13 L 784.38 275.38 L 784.00 276.00 L 783.75 277.00 L 783.63 278.38 L 783.63 280.13 L 783.50 281.56 L 783.25 282.69 L 782.88 283.50 L 782.38 284.00 L 782.00 285.25 L 781.75 287.25 L 781.63 290.00 L 781.63 293.50 L 781.75 296.13 L 782.00 297.88 L 782.38 298.75 L 782.88 298.75 L 783.25 298.88 L 783.50 299.13 L 783.63 299.50 L 783.63 300.00 L 783.94 300.38 L 784.56 300.63 L 785.50 300.75 L 786.75 300.75 L 787.69 300.63 L 788.31 300.38 L 788.63 300.00 L 788.63 299.50 L 789.44 298.56 L 791.06 297.19 L 793.50 295.38 L 796.75 293.13 L 799.69 290.81 L 802.31 288.44 L 804.63 286.00 L 806.63 283.50 L 808.75 281.69 L 811.00 280.56 L 813.38 280.13 L 815.88 280.38 L 817.75 281.69 L 819.00 284.06 L 819.63 287.50 L 819.63 292.00 L 818.75 296.06 L 817.00 299.69 L 814.38 302.88 L 810.88 305.63 L 808.00 308.06 L 805.75 310.19 L 804.13 312.00 L 803.13 313.50 L 802.13 314.69 L 801.13 315.56 L 800.13 316.13 L 799.13 316.38 L 798.25 316.81 L 797.50 317.44 L 796.88 318.25 L 796.38 319.25 L 795.81 320.00 L 795.19 320.50 L 794.50 320.75 L 793.75 320.75 L 793.06 321.00 L 792.44 321.50 L 791.88 322.25 L 791.38 323.25 L 790.25 324.44 L 788.50 325.81 L 786.13 327.38 L 783.13 329.13 L 780.44 330.50 L 778.06 331.50 L 776.00 332.13 L 774.25 332.38 L 772.00 332.50 L 769.25 332.50 L 766.00 332.38 L 762.25 332.13 L 759.44 331.81 L 757.56 331.44 L 756.63 331.00 L 756.63 330.50 L 756.38 330.13 L 755.88 329.88 L 755.13 329.75 L 754.13 329.75 L 753.38 329.63 L 752.88 329.38 L 752.63 329.00 L 752.63 328.50 L 752.19 327.81 L 751.31 326.94 L 750.00 325.88 L 748.25 324.63 L 746.94 323.44 L 746.06 322.31 L 745.63 321.25 L 745.63 320.25 L 745.50 319.50 L 745.25 319.00 L 744.88 318.75 L 744.38 318.75 L 743.88 317.88 L 743.38 316.13 L 742.88 313.50 L 742.38 310.00 L 741.81 307.50 L 741.19 306.00 L 740.50 305.50 L 739.75 306.00 L 739.06 306.69 L 738.44 307.56 L 737.88 308.63 L 737.38 309.88 L 736.44 311.25 L 735.06 312.75 L 733.25 314.38 L 731.00 316.13 L 729.31 317.56 L 728.19 318.69 L 727.63 319.50 L 727.63 320.00 L 726.44 321.06 L 724.06 322.69 L 720.50 324.88 L 715.75 327.63 L 711.38 329.75 L 707.38 331.25 L 703.75 332.13 L 700.50 332.38 L 697.19 332.38 L 693.81 332.13 L 690.38 331.63 L 686.88 330.88 L 684.25 330.19 L 682.50 329.56 L 681.63 329.00 L 681.63 328.50 L 681.44 328.13 L 681.06 327.88 L 680.50 327.75 L 679.75 327.75 L 679.19 327.63 L 678.81 327.38 L 678.63 327.00 L 678.63 326.50 L 678.06 325.69 L 676.94 324.56 L 675.25 323.13 L 673.00 321.38 L 671.06 319.38 L 669.44 317.13 L 668.13 314.63 L 667.13 311.88 L 666.00 309.94 L 664.75 308.81 L 663.38 308.50 L 661.88 309.00 L 660.50 309.75 L 659.25 310.75 L 658.13 312.00 L 657.13 313.50 L 655.94 314.81 L 654.56 315.94 L 653.00 316.88 L 651.25 317.63 L 649.81 318.44 L 648.69 319.31 L 647.88 320.25 L 647.38 321.25 L 646.25 322.44 L 644.50 323.81 L 642.13 325.38 L 639.13 327.13 L 636.06 328.69 L 632.94 330.06 L 629.75 331.25 L 626.50 332.25 L 623.13 332.88 L 619.63 333.13 L 616.00 333.00 L 612.25 332.50 L 608.81 331.63 L 605.69 330.38 L 602.88 328.75 L 600.38 326.75 L 598.13 324.31 L 596.13 321.44 L 594.38 318.13 L 592.88 314.38 L 591.88 310.50 L 591.38 306.50 L 591.38 302.38 L 591.88 298.13 L 592.38 294.88 L 592.88 292.63 L 593.38 291.38 L 593.88 291.13 L 594.44 290.13 L 595.06 288.38 L 595.75 285.88 L 596.50 282.63 L 597.56 279.44 L 598.94 276.31 L 600.63 273.25 L 602.63 270.25 L 604.13 267.81 L 605.13 265.94 L 605.63 264.63 L 605.63 263.88 L 605.13 263.44 L 604.13 263.31 L 602.63 263.50 L 600.63 264.00 L 598.94 264.81 L 597.56 265.94 L 596.50 267.38 L 595.75 269.13 L 595.06 270.44 L 594.44 271.31 L 593.88 271.75 L 593.38 271.75 L 592.94 272.00 L 592.56 272.50 L 592.25 273.25 L 592.00 274.25 L 591.31 275.50 L 590.19 277.00 L 588.63 278.75 L 586.63 280.75 L 584.94 282.63 L 583.56 284.38 L 582.50 286.00 L 581.75 287.50 L 581.06 288.63 L 580.44 289.38 L 579.88 289.75 L 579.38 289.75 L 579.00 289.88 L 578.75 290.13 L 578.63 290.50 L 578.63 291.00 L 578.50 291.38 L 578.25 291.63 L 577.88 291.75 L 577.38 291.75 L 577.00 291.88 L 576.75 292.13 L 576.63 292.50 L 576.63 293.00 L 576.50 293.38 L 576.25 293.63 L 575.88 293.75 L 575.38 293.75 L 575.00 293.88 L 574.75 294.13 L 574.63 294.50 L 574.63 295.00 L 574.19 295.69 L 573.31 296.56 L 572.00 297.63 L 570.25 298.88 L 568.94 299.94 L 568.06 300.81 L 567.63 301.50 L 567.63 302.00 L 567.50 302.38 L 567.25 302.63 L 566.88 302.75 L 566.38 302.75 L 566.00 302.88 L 565.75 303.13 L 565.63 303.50 L 565.63 304.00 L 565.19 304.69 L 564.31 305.56 L 563.00 306.63 L 561.25 307.88 L 559.81 309.06 L 558.69 310.19 L 557.88 311.25 L 557.38 312.25 L 556.44 313.31 L 555.06 314.44 L 553.25 315.63 L 551.00 316.88 L 549.31 317.94 L 548.19 318.81 L 547.63 319.50 L 547.63 320.00 L 547.06 320.69 L 545.94 321.56 L 544.25 322.63 L 542.00 323.88 L 540.31 324.94 L 539.19 325.81 L 538.63 326.50 L 538.63 327.00 L 537.69 327.75 L 535.81 328.75 L 533.00 330.00 L 529.25 331.50 L 525.56 332.50 L 521.94 333.00 L 518.38 333.00 L 514.88 332.50 L 511.88 331.88 L 509.38 331.13 L 507.38 330.25 L 505.88 329.25 L 504.38 328.00 L 502.88 326.50 L 501.38 324.75 L 499.88 322.75 L 498.75 321.06 L 498.00 319.69 L 497.63 318.63 L 497.63 317.88 L 497.50 317.31 L 497.25 316.94 L 496.88 316.75 L 496.38 316.75 L 495.88 316.25 L 495.38 315.25 L 494.88 313.75 L 494.38 311.75 L 493.81 310.31 L 493.19 309.44 L 492.50 309.13 L 491.75 309.38 L 491.06 309.81 L 490.44 310.44 L 489.88 311.25 L 489.38 312.25 L 488.56 313.19 L 487.44 314.06 L 486.00 314.88 L 484.25 315.63 L 482.81 316.44 L 481.69 317.31 L 480.88 318.25 L 480.38 319.25 L 479.81 320.00 L 479.19 320.50 L 478.50 320.75 L 477.75 320.75 L 476.56 321.19 L 474.94 322.06 L 472.88 323.38 L 470.38 325.13 L 467.81 326.56 L 465.19 327.69 L 462.50 328.50 L 459.75 329.00 L 457.63 329.50 L 456.13 330.00 L 455.25 330.50 L 455.00 331.00 L 453.56 331.44 L 450.94 331.81 L 447.13 332.13 L 442.13 332.38 L 437.38 332.38 L 432.88 332.13 L 428.63 331.63 L 424.63 330.88 L 421.56 330.19 L 419.44 329.56 L 418.25 329.00 L 418.00 328.50 L 417.56 328.13 L 416.94 327.88 L 416.13 327.75 L 415.13 327.75 L 414.13 327.50 L 413.13 327.00 L 412.13 326.25 L 411.13 325.25 L 410.13 324.44 L 409.13 323.81 L 408.13 323.38 L 407.13 323.13 L 406.38 322.81 L 405.88 322.44 L 405.63 322.00 L 405.63 321.50 L 405.31 320.88 L 404.69 320.13 L 403.75 319.25 L 402.50 318.25 L 401.56 317.31 L 400.94 316.44 L 400.63 315.63 L 400.63 314.88 L 400.38 314.13 L 399.88 313.38 L 399.13 312.63 L 398.13 311.88 L 397.31 311.06 L 396.69 310.19 L 396.25 309.25 L 396.00 308.25 L 395.56 307.56 L 394.94 307.19 L 394.13 307.13 L 393.13 307.38 L 392.38 307.69 L 391.88 308.06 L 391.63 308.50 L 391.63 309.00 L 391.50 309.38 L 391.25 309.63 L 390.88 309.75 L 390.38 309.75 L 390.00 309.88 L 389.75 310.13 L 389.63 310.50 L 389.63 311.00 L 389.50 311.38 L 389.25 311.63 L 388.88 311.75 L 388.38 311.75 L 388.00 311.88 L 387.75 312.13 L 387.63 312.50 L 387.63 313.00 L 387.31 313.63 L 386.69 314.38 L 385.75 315.25 L 384.50 316.25 L 383.31 317.06 L 382.19 317.69 L 381.13 318.13 L 380.13 318.38 L 379.25 318.81 L 378.50 319.44 L 377.88 320.25 L 377.38 321.25 L 376.25 322.31 L 374.50 323.44 L 372.13 324.63 L 369.13 325.88 L 366.81 326.94 L 365.19 327.81 L 364.25 328.50 L 364.00 329.00 L 362.44 329.56 L 359.56 330.19 L 355.38 330.88 L 349.88 331.63 L 345.31 332.13 L 341.69 332.38 L 339.00 332.38 L 337.25 332.13 L 335.88 331.81 L 334.88 331.44 L 334.25 331.00 L 334.00 330.50 L 333.63 330.13 L 333.13 329.88 L 332.50 329.75 L 331.75 329.75 L 331.19 329.63 L 330.81 329.38 L 330.63 329.00 L 330.63 328.50 L 330.38 328.13 L 329.88 327.88 L 329.13 327.75 L 328.13 327.75 L 327.38 327.63 L 326.88 327.38 L 326.63 327.00 L 326.63 326.50 L 326.31 325.94 L 325.69 325.31 L 324.75 324.63 L 323.50 323.88 L 322.44 322.81 L 321.56 321.44 L 320.88 319.75 L 320.38 317.75 L 319.88 316.19 L 319.38 315.06 L 318.88 314.38 L 318.38 314.13 L 318.00 313.44 L 317.75 312.31 L 317.63 310.75 L 317.63 308.75 L 317.31 307.50 L 316.69 307.00 L 315.75 307.25 L 314.50 308.25 L 313.56 309.13 L 312.94 309.88 L 312.63 310.50 L 312.63 311.00 L 312.50 311.38 L 312.25 311.63 L 311.88 311.75 L 311.38 311.75 L 310.88 312.06 L 310.38 312.69 L 309.88 313.63 L 309.38 314.88 L 308.56 316.06 L 307.44 317.19 L 306.00 318.25 L 304.25 319.25 L 302.94 320.13 L 302.06 320.88 L 301.63 321.50 L 301.63 322.00 L 301.19 322.56 L 300.31 323.19 L 299.00 323.88 L 297.25 324.63 L 295.94 325.31 L 295.06 325.94 L 294.63 326.50 L 294.63 327.00 L 294.38 327.38 L 293.88 327.63 L 293.13 327.75 L 292.13 327.75 L 291.38 327.88 L 290.88 328.13 L 290.63 328.50 L 290.63 329.00 L 290.38 329.38 L 289.88 329.63 L 289.13 329.75 L 288.13 329.75 L 287.31 329.88 L 286.69 330.13 L 286.25 330.50 L 286.00 331.00 L 284.44 331.38 L 281.56 331.63 L 277.38 331.75 L 271.88 331.75 L 267.69 331.63 L 264.81 331.38 L 263.25 331.00 L 263.00 330.50 L 262.56 330.13 L 261.94 329.88 L 261.13 329.75 L 260.13 329.75 L 259.38 329.63 L 258.88 329.38 L 258.63 329.00 L 258.63 328.50 L 258.38 328.13 L 257.88 327.88 L 257.13 327.75 L 256.13 327.75 L 255.38 327.63 L 254.88 327.38 L 254.63 327.00 L 254.63 326.50 L 254.06 325.69 L 252.94 324.56 L 251.25 323.13 L 249.00 321.38 L 247.00 319.38 L 245.25 317.13 L 243.75 314.63 L 242.50 311.88 L 241.00 310.19 L 239.25 309.56 L 237.25 310.00 L 235.00 311.50 L 233.31 312.75 L 232.19 313.75 L 231.63 314.50 L 231.63 315.00 L 231.50 315.38 L 231.25 315.63 L 230.88 315.75 L 230.38 315.75 L 229.63 316.19 L 228.63 317.06 L 227.38 318.38 L 225.88 320.13 L 224.56 321.44 L 223.44 322.31 L 222.50 322.75 L 221.75 322.75 L 221.19 322.88 L 220.81 323.13 L 220.63 323.50 L 220.63 324.00 L 219.88 324.81 L 218.38 325.94 L 216.13 327.38 L 213.13 329.13 L 210.56 330.44 L 208.44 331.31 L 206.75 331.75 L 205.50 331.75 L 204.44 331.88 L 203.56 332.13 L 202.88 332.50 L 202.38 333.00 L 201.06 333.25 L 198.94 333.25 L 196.00 333.00 L 192.25 332.50 L 189.44 332.00 L 187.56 331.50 L 186.63 331.00 L 186.63 330.50 L 186.25 330.00 L 185.50 329.50 L 184.38 329.00 L 182.88 328.50 L 181.31 327.44 L 179.69 325.81 L 178.00 323.63 L 176.25 320.88 L 174.94 318.56 L 174.06 316.69 L 173.63 315.25 L 173.63 314.25 L 173.50 313.44 L 173.25 312.81 L 172.88 312.38 L 172.38 312.13 L 172.00 309.88 L 171.75 305.63 L 171.63 299.38 L 171.63 291.13 L 171.75 284.75 L 172.00 280.25 L 172.38 277.63 L 172.88 276.88 L 173.38 275.38 L 173.88 273.13 L 174.38 270.13 L 174.88 266.38 L 175.38 263.50 L 175.88 261.50 L 176.38 260.38 L 176.88 260.13 L 177.44 258.88 L 178.06 256.63 L 178.75 253.38 L 179.50 249.13 L 180.31 245.56 L 181.19 242.69 L 182.13 240.50 L 183.13 239.00 L 183.88 237.56 L 184.38 236.19 L 184.63 234.88 L 184.63 233.63 L 184.75 232.63 L 185.00 231.88 L 185.38 231.38 L 185.88 231.13 L 186.44 230.13 L 187.06 228.38 L 187.75 225.88 L 188.50 222.63 L 189.44 220.00 L 190.56 218.00 L 191.88 216.63 L 193.38 215.88 L 194.94 215.31 L 196.56 214.94 L 198.25 214.75 L 200.00 214.75 L 201.38 214.63 L 202.38 214.38 L 203.00 214.00 L 203.25 213.50 L 204.44 213.00 L 206.56 212.50 L 209.63 212.00 L 213.63 211.50 L 216.25 210.94 L 217.50 210.31 L 217.38 209.63 L 215.88 208.88 L 214.31 208.31 L 212.69 207.94 L 211.00 207.75 L 209.25 207.75 L 207.94 207.63 L 207.06 207.38 L 206.63 207.00 L 206.63 206.50 L 206.38 206.13 L 205.88 205.88 L 205.13 205.75 L 204.13 205.75 L 203.38 205.63 L 202.88 205.38 L 202.63 205.00 L 202.63 204.50 L 202.25 203.88 L 201.50 203.13 L 200.38 202.25 L 198.88 201.25 L 197.69 200.06 L 196.81 198.69 L 196.25 197.13 L 196.00 195.38 L 195.69 194.06 L 195.31 193.19 L 194.88 192.75 L 194.38 192.75 L 194.00 192.13 L 193.75 190.88 L 193.63 189.00 L 193.63 186.50 L 193.75 184.63 L 194.00 183.38 L 194.38 182.75 L 194.88 182.75 L 195.31 182.31 L 195.69 181.44 L 196.00 180.13 L 196.25 178.38 L 196.81 176.81 L 197.69 175.44 L 198.88 174.25 L 200.38 173.25 L 201.50 172.38 L 202.25 171.63 L 202.63 171.00 L 202.63 170.50 L 202.88 170.13 L 203.38 169.88 L 204.13 169.75 L 205.13 169.75 L 205.94 169.63 L 206.56 169.38 L 207.00 169.00 L 207.25 168.50 L 208.13 168.13 L 209.63 167.88 L 211.75 167.75 L 214.50 167.75 L 216.56 167.88 L 217.94 168.13 L 218.63 168.50 L 218.63 169.00 L 219.06 169.38 L 219.94 169.63 L 221.25 169.75 L 223.00 169.75 L 224.38 169.88 L 225.38 170.13 L 226.00 170.50 L 226.25 171.00 L 226.63 171.38 L 227.13 171.63 L 227.75 171.75 L 228.50 171.75 L 229.50 172.31 L 230.75 173.44 L 232.25 175.13 L 234.00 177.38 L 235.25 180.25 L 236.00 183.75 L 236.25 187.88 L 236.00 192.63 L 235.50 196.56 L 234.75 199.69 L 233.75 202.00 L 232.50 203.50 L 231.19 204.75 L 229.81 205.75 L 228.38 206.50 L 226.88 207.00 L 226.44 207.50 L 227.06 208.00 L 228.75 208.50 L 231.50 209.00 L 233.56 209.81 L 234.94 210.94 L 235.63 212.38 L 235.63 214.13 L 235.50 215.56 L 235.25 216.69 L 234.88 217.50 L 234.38 218.00 L 233.88 219.00 L 233.38 220.50 L 232.88 222.50 L 232.38 225.00 L 231.88 226.94 L 231.38 228.31 L 230.88 229.13 L 230.38 229.38 L 230.00 229.94 L 229.75 230.81 L 229.63 232.00 L 229.63 233.50 L 229.50 234.63 L 229.25 235.38 L 228.88 235.75 L 228.38 235.75 L 227.94 236.31 L 227.56 237.44 L 227.25 239.13 L 227.00 241.38 L 226.69 243.19 L 226.31 244.56 L 225.88 245.50 L 225.38 246.00 L 225.00 246.69 L 224.75 247.56 L 224.63 248.63 L 224.63 249.88 L 224.50 250.88 L 224.25 251.63 L 223.88 252.13 L 223.38 252.38 L 222.88 253.31 L 222.38 254.94 L 221.88 257.25 L 221.38 260.25 L 220.88 262.50 L 220.38 264.00 L 219.88 264.75 L 219.38 264.75 L 218.94 265.44 L 218.56 266.81 L 218.25 268.88 L 218.00 271.63 L 217.69 273.81 L 217.31 275.44 L 216.88 276.50 L 216.38 277.00 L 215.88 278.38 L 215.38 280.63 L 214.88 283.75 L 214.38 287.75 L 214.13 291.06 L 214.13 293.69 L 214.38 295.63 L 214.88 296.88 L 215.44 297.81 L 216.06 298.44 L 216.75 298.75 L 217.50 298.75 L 218.56 298.44 L 219.94 297.81 L 221.63 296.88 L 223.63 295.63 L 225.88 293.94 L 228.38 291.81 L 231.13 289.25 L 234.13 286.25 L 236.69 282.81 L 238.81 278.94 L 240.50 274.63 L 241.75 269.88 L 242.81 266.25 L 243.69 263.75 L 244.38 262.38 L 244.88 262.13 L 245.25 261.69 L 245.50 261.06 L 245.63 260.25 L 245.63 259.25 L 245.75 258.50 L 246.00 258.00 L 246.38 257.75 L 246.88 257.75 L 247.44 257.19 L 248.06 256.06 L 248.75 254.38 L 249.50 252.13 L 250.88 249.31 L 252.88 245.94 L 255.50 242.00 L 258.75 237.50 L 261.31 234.13 L 263.19 231.88 L 264.38 230.75 L 264.88 230.75 L 265.25 230.63 L 265.50 230.38 L 265.63 230.00 L 265.63 229.50 L 265.75 229.13 L 266.00 228.88 L 266.38 228.75 L 266.88 228.75 L 267.50 228.44 L 268.25 227.81 L 269.13 226.88 L 270.13 225.63 L 271.06 224.69 L 271.94 224.06 L 272.75 223.75 L 273.50 223.75 L 274.19 223.50 L 274.81 223.00 L 275.38 222.25 L 275.88 221.25 L 277.69 219.81 L 280.81 217.94 L 285.25 215.63 L 291.00 212.88 L 296.69 210.81 L 302.31 209.44 L 307.88 208.75 L 313.38 208.75 L 318.06 209.00 L 321.94 209.50 L 325.00 210.25 L 327.25 211.25 L 329.00 211.31 L 330.25 210.44 L 331.00 208.63 L 331.25 205.88 L 331.56 203.69 L 331.94 202.06 L 332.38 201.00 L 332.88 200.50 L 333.25 199.75 L 333.50 198.75 L 333.63 197.50 L 333.63 196.00 L 333.75 194.81 L 334.00 193.94 L 334.38 193.38 L 334.88 193.13 L 335.25 192.44 L 335.50 191.31 L 335.63 189.75 L 335.63 187.75 L 335.75 186.25 L 336.00 185.25 L 336.38 184.75 L 336.88 184.75 L 337.56 182.94 L 338.44 179.31 L 339.50 173.88 L 340.75 166.63 L 341.81 161.13 L 342.69 157.38 L 343.38 155.38 L 343.88 155.13 L 344.25 154.50 L 344.50 153.50 L 344.63 152.13 L 344.63 150.38 L 344.75 149.00 L 345.00 148.00 L 345.38 147.38 L 345.88 147.13 L 346.38 146.25 L 346.88 144.75 L 347.38 142.63 L 347.88 139.88 L 349.94 137.50 L 353.56 135.50 L 358.75 133.88 L 365.50 132.63 L 370.56 131.63 L 373.94 130.88 L 375.63 130.38 L 375.63 130.13 L 376.63 130.06 L 378.63 130.19 Z
    M 695.63 0.13 L 699.63 0.38 L 703.31 0.75 L 706.69 1.25 L 709.75 1.88 L 712.50 2.63 L 714.56 3.31 L 715.94 3.94 L 716.63 4.50 L 716.63 5.00 L 716.88 5.38 L 717.38 5.63 L 718.13 5.75 L 719.13 5.75 L 720.13 6.00 L 721.13 6.50 L 722.13 7.25 L 723.13 8.25 L 724.06 9.00 L 724.94 9.50 L 725.75 9.75 L 726.50 9.75 L 727.06 9.88 L 727.44 10.13 L 727.63 10.50 L 727.63 11.00 L 728.06 11.56 L 728.94 12.19 L 730.25 12.88 L 732.00 13.63 L 733.31 14.31 L 734.19 14.94 L 734.63 15.50 L 734.63 16.00 L 734.75 16.38 L 735.00 16.63 L 735.38 16.75 L 735.88 16.75 L 736.25 16.88 L 736.50 17.13 L 736.63 17.50 L 736.63 18.00 L 736.75 18.38 L 737.00 18.63 L 737.38 18.75 L 737.88 18.75 L 738.25 18.88 L 738.50 19.13 L 738.63 19.50 L 738.63 20.00 L 738.94 20.63 L 739.56 21.38 L 740.50 22.25 L 741.75 23.25 L 742.81 24.31 L 743.69 25.44 L 744.38 26.63 L 744.88 27.88 L 745.38 28.81 L 745.88 29.44 L 746.38 29.75 L 746.88 29.75 L 747.63 30.75 L 748.63 32.75 L 749.88 35.75 L 751.38 39.75 L 752.56 43.56 L 753.44 47.19 L 754.00 50.63 L 754.25 53.88 L 754.25 57.50 L 754.00 61.50 L 753.50 65.88 L 752.75 70.63 L 751.81 75.00 L 750.69 79.00 L 749.38 82.63 L 747.88 85.88 L 747.56 88.31 L 748.44 89.94 L 750.50 90.75 L 753.75 90.75 L 756.25 90.63 L 758.00 90.38 L 759.00 90.00 L 759.25 89.50 L 759.88 89.00 L 760.88 88.50 L 762.25 88.00 L 764.00 87.50 L 766.19 86.25 L 768.81 84.25 L 771.88 81.50 L 775.38 78.00 L 778.06 75.13 L 779.94 72.88 L 781.00 71.25 L 781.25 70.25 L 781.56 69.50 L 781.94 69.00 L 782.38 68.75 L 782.88 68.75 L 783.44 68.19 L 784.06 67.06 L 784.75 65.38 L 785.50 63.13 L 786.19 61.38 L 786.81 60.13 L 787.38 59.38 L 787.88 59.13 L 788.25 58.69 L 788.50 58.06 L 788.63 57.25 L 788.63 56.25 L 788.94 55.38 L 789.56 54.63 L 790.50 54.00 L 791.75 53.50 L 792.94 54.25 L 794.06 56.25 L 795.13 59.50 L 796.13 64.00 L 797.00 67.38 L 797.75 69.63 L 798.38 70.75 L 798.88 70.75 L 799.25 71.00 L 799.50 71.50 L 799.63 72.25 L 799.63 73.25 L 799.75 74.00 L 800.00 74.50 L 800.38 74.75 L 800.88 74.75 L 801.25 74.94 L 801.50 75.31 L 801.63 75.88 L 801.63 76.63 L 802.06 77.75 L 802.94 79.25 L 804.25 81.13 L 806.00 83.38 L 807.69 85.31 L 809.31 86.94 L 810.88 88.25 L 812.38 89.25 L 814.00 90.06 L 815.75 90.69 L 817.63 91.13 L 819.63 91.38 L 821.25 91.69 L 822.50 92.06 L 823.38 92.50 L 823.88 93.00 L 825.81 93.31 L 829.19 93.44 L 834.00 93.38 L 840.25 93.13 L 844.94 93.25 L 848.06 93.75 L 849.63 94.63 L 849.63 95.88 L 849.19 97.13 L 848.31 98.38 L 847.00 99.63 L 845.25 100.88 L 843.38 102.75 L 841.38 105.25 L 839.25 108.38 L 837.00 112.13 L 835.25 115.69 L 834.00 119.06 L 833.25 122.25 L 833.00 125.25 L 832.88 127.88 L 832.88 130.13 L 833.00 132.00 L 833.25 133.50 L 833.56 134.63 L 833.94 135.38 L 834.38 135.75 L 834.88 135.75 L 835.25 135.94 L 835.50 136.31 L 835.63 136.88 L 835.63 137.63 L 836.00 138.63 L 836.75 139.88 L 837.88 141.38 L 839.38 143.13 L 840.56 144.69 L 841.44 146.06 L 842.00 147.25 L 842.25 148.25 L 843.13 149.50 L 844.63 151.00 L 846.75 152.75 L 849.50 154.75 L 851.50 156.44 L 852.75 157.81 L 853.25 158.88 L 853.00 159.63 L 852.56 160.19 L 851.94 160.56 L 851.13 160.75 L 850.13 160.75 L 849.38 160.63 L 848.88 160.38 L 848.63 160.00 L 848.63 159.50 L 847.69 158.94 L 845.81 158.31 L 843.00 157.63 L 839.25 156.88 L 836.31 156.19 L 834.19 155.56 L 832.88 155.00 L 832.38 154.50 L 831.50 154.13 L 830.25 153.88 L 828.63 153.75 L 826.63 153.75 L 825.06 153.63 L 823.94 153.38 L 823.25 153.00 L 823.00 152.50 L 821.81 152.13 L 819.69 151.88 L 816.63 151.75 L 812.63 151.75 L 809.56 151.88 L 807.44 152.13 L 806.25 152.50 L 806.00 153.00 L 805.44 153.38 L 804.56 153.63 L 803.38 153.75 L 801.88 153.75 L 800.31 153.94 L 798.69 154.31 L 797.00 154.88 L 795.25 155.63 L 793.94 156.31 L 793.06 156.94 L 792.63 157.50 L 792.63 158.00 L 792.38 158.38 L 791.88 158.63 L 791.13 158.75 L 790.13 158.75 L 789.38 158.88 L 788.88 159.13 L 788.63 159.50 L 788.63 160.00 L 788.31 160.63 L 787.69 161.38 L 786.75 162.25 L 785.50 163.25 L 784.56 164.19 L 783.94 165.06 L 783.63 165.88 L 783.63 166.63 L 783.50 167.19 L 783.25 167.56 L 782.88 167.75 L 782.38 167.75 L 782.00 168.00 L 781.75 168.50 L 781.63 169.25 L 781.63 170.25 L 781.31 171.00 L 780.69 171.50 L 779.75 171.75 L 778.50 171.75 L 776.81 170.94 L 774.69 169.31 L 772.13 166.88 L 769.13 163.63 L 765.88 160.88 L 762.38 158.63 L 758.63 156.88 L 754.63 155.63 L 751.13 154.69 L 748.13 154.06 L 745.63 153.75 L 743.63 153.75 L 742.00 151.81 L 740.75 147.94 L 739.88 142.13 L 739.38 134.38 L 738.88 128.50 L 738.38 124.50 L 737.88 122.38 L 737.38 122.13 L 736.88 121.38 L 736.38 120.13 L 735.88 118.38 L 735.38 116.13 L 734.69 114.19 L 733.81 112.56 L 732.75 111.25 L 731.50 110.25 L 730.44 109.69 L 729.56 109.56 L 728.88 109.88 L 728.38 110.63 L 727.69 111.31 L 726.81 111.94 L 725.75 112.50 L 724.50 113.00 L 723.56 113.50 L 722.94 114.00 L 722.63 114.50 L 722.63 115.00 L 722.44 115.38 L 722.06 115.63 L 721.50 115.75 L 720.75 115.75 L 719.56 116.19 L 717.94 117.06 L 715.88 118.38 L 713.38 120.13 L 710.94 121.56 L 708.56 122.69 L 706.25 123.50 L 704.00 124.00 L 702.25 124.50 L 701.00 125.00 L 700.25 125.50 L 700.00 126.00 L 698.19 126.56 L 694.81 127.19 L 689.88 127.88 L 683.38 128.63 L 678.50 130.06 L 675.25 132.19 L 673.63 135.00 L 673.63 138.50 L 673.44 141.50 L 673.06 144.00 L 672.50 146.00 L 671.75 147.50 L 671.06 148.63 L 670.44 149.38 L 669.88 149.75 L 669.38 149.75 L 669.00 149.88 L 668.75 150.13 L 668.63 150.50 L 668.63 151.00 L 668.06 151.81 L 666.94 152.94 L 665.25 154.38 L 663.00 156.13 L 660.44 157.56 L 657.56 158.69 L 654.38 159.50 L 650.88 160.00 L 648.25 160.25 L 646.50 160.25 L 645.63 160.00 L 645.63 159.50 L 645.00 159.00 L 643.75 158.50 L 641.88 158.00 L 639.38 157.50 L 636.94 156.44 L 634.56 154.81 L 632.25 152.63 L 630.00 149.88 L 628.19 147.06 L 626.81 144.19 L 625.88 141.25 L 625.38 138.25 L 625.13 135.81 L 625.13 133.94 L 625.38 132.63 L 625.88 131.88 L 626.25 130.94 L 626.50 129.81 L 626.63 128.50 L 626.63 127.00 L 626.75 125.88 L 627.00 125.13 L 627.38 124.75 L 627.88 124.75 L 628.25 124.56 L 628.50 124.19 L 628.63 123.63 L 628.63 122.88 L 628.88 122.06 L 629.38 121.19 L 630.13 120.25 L 631.13 119.25 L 631.25 118.56 L 630.50 118.19 L 628.88 118.13 L 626.38 118.38 L 623.88 118.38 L 621.38 118.13 L 618.88 117.63 L 616.38 116.88 L 614.88 116.94 L 614.38 117.81 L 614.88 119.50 L 616.38 122.00 L 617.38 124.81 L 617.88 127.94 L 617.88 131.38 L 617.38 135.13 L 616.88 137.94 L 616.38 139.81 L 615.88 140.75 L 615.38 140.75 L 614.75 141.19 L 614.00 142.06 L 613.13 143.38 L 612.13 145.13 L 610.94 146.56 L 609.56 147.69 L 608.00 148.50 L 606.25 149.00 L 604.94 149.50 L 604.06 150.00 L 603.63 150.50 L 603.63 151.00 L 602.75 151.38 L 601.00 151.63 L 598.38 151.75 L 594.88 151.75 L 592.44 152.06 L 591.06 152.69 L 590.75 153.63 L 591.50 154.88 L 592.19 155.81 L 592.81 156.44 L 593.38 156.75 L 593.88 156.75 L 594.38 157.19 L 594.88 158.06 L 595.38 159.38 L 595.88 161.13 L 596.38 162.50 L 596.88 163.50 L 597.38 164.13 L 597.88 164.38 L 598.25 165.19 L 598.50 166.56 L 598.63 168.50 L 598.63 171.00 L 598.50 173.19 L 598.25 175.06 L 597.88 176.63 L 597.38 177.88 L 596.63 179.31 L 595.63 180.94 L 594.38 182.75 L 592.88 184.75 L 591.56 186.25 L 590.44 187.25 L 589.50 187.75 L 588.75 187.75 L 588.19 187.88 L 587.81 188.13 L 587.63 188.50 L 587.63 189.00 L 587.31 189.50 L 586.69 190.00 L 585.75 190.50 L 584.50 191.00 L 582.75 191.38 L 580.50 191.63 L 577.75 191.75 L 574.50 191.75 L 571.75 191.63 L 569.50 191.38 L 567.75 191.00 L 566.50 190.50 L 565.56 190.00 L 564.94 189.50 L 564.63 189.00 L 564.63 188.50 L 564.13 187.75 L 563.13 186.75 L 561.63 185.50 L 559.63 184.00 L 558.00 182.56 L 556.75 181.19 L 555.88 179.88 L 555.38 178.63 L 555.00 176.81 L 554.75 174.44 L 554.63 171.50 L 554.63 168.00 L 554.75 165.31 L 555.00 163.44 L 555.38 162.38 L 555.88 162.13 L 556.25 161.75 L 556.50 161.25 L 556.63 160.63 L 556.63 159.88 L 556.75 159.31 L 557.00 158.94 L 557.38 158.75 L 557.88 158.75 L 558.25 158.56 L 558.50 158.19 L 558.63 157.63 L 558.63 156.88 L 558.88 156.06 L 559.38 155.19 L 560.13 154.25 L 561.13 153.25 L 562.06 152.50 L 562.94 152.00 L 563.75 151.75 L 564.50 151.75 L 565.06 151.63 L 565.44 151.38 L 565.63 151.00 L 565.63 150.50 L 565.88 150.13 L 566.38 149.88 L 567.13 149.75 L 568.13 149.75 L 568.94 149.63 L 569.56 149.38 L 570.00 149.00 L 570.25 148.50 L 571.13 148.13 L 572.63 147.88 L 574.75 147.75 L 577.50 147.75 L 579.13 147.13 L 579.63 145.88 L 579.00 144.00 L 577.25 141.50 L 575.94 138.69 L 575.06 135.56 L 574.63 132.13 L 574.63 128.38 L 574.88 125.13 L 575.38 122.38 L 576.13 120.13 L 577.13 118.38 L 578.56 116.63 L 580.44 114.88 L 582.75 113.13 L 585.50 111.38 L 588.56 110.13 L 591.94 109.38 L 595.63 109.13 L 599.63 109.38 L 602.25 109.00 L 603.50 108.00 L 603.38 106.38 L 601.88 104.13 L 600.75 101.63 L 600.00 98.88 L 599.63 95.88 L 599.63 92.63 L 599.75 90.13 L 600.00 88.38 L 600.38 87.38 L 600.88 87.13 L 601.38 86.50 L 601.88 85.50 L 602.38 84.13 L 602.88 82.38 L 603.38 81.06 L 603.88 80.19 L 604.38 79.75 L 604.88 79.75 L 605.56 79.31 L 606.44 78.44 L 607.50 77.13 L 608.75 75.38 L 609.94 74.06 L 611.06 73.19 L 612.13 72.75 L 613.13 72.75 L 613.88 72.63 L 614.38 72.38 L 614.63 72.00 L 614.63 71.50 L 615.44 71.06 L 617.06 70.69 L 619.50 70.38 L 622.75 70.13 L 625.56 70.00 L 627.94 70.00 L 629.88 70.13 L 631.38 70.38 L 633.00 70.88 L 634.75 71.63 L 636.63 72.63 L 638.63 73.88 L 640.44 75.25 L 642.06 76.75 L 643.50 78.38 L 644.75 80.13 L 645.69 81.69 L 646.31 83.06 L 646.63 84.25 L 646.63 85.25 L 646.75 86.00 L 647.00 86.50 L 647.38 86.75 L 647.88 86.75 L 648.25 87.63 L 648.50 89.38 L 648.63 92.00 L 648.63 95.50 L 648.19 98.81 L 647.31 101.94 L 646.00 104.88 L 644.25 107.63 L 644.00 109.69 L 645.25 111.06 L 648.00 111.75 L 652.25 111.75 L 656.06 112.25 L 659.44 113.25 L 662.38 114.75 L 664.88 116.75 L 668.19 118.00 L 672.31 118.50 L 677.25 118.25 L 683.00 117.25 L 687.31 116.38 L 690.19 115.63 L 691.63 115.00 L 691.63 114.50 L 691.94 114.13 L 692.56 113.88 L 693.50 113.75 L 694.75 113.75 L 695.75 113.63 L 696.50 113.38 L 697.00 113.00 L 697.25 112.50 L 698.06 111.94 L 699.44 111.31 L 701.38 110.63 L 703.88 109.88 L 705.75 109.19 L 707.00 108.56 L 707.63 108.00 L 707.63 107.50 L 707.81 107.13 L 708.19 106.88 L 708.75 106.75 L 709.50 106.75 L 710.25 106.50 L 711.00 106.00 L 711.75 105.25 L 712.50 104.25 L 713.50 103.31 L 714.75 102.44 L 716.25 101.63 L 718.00 100.88 L 719.50 99.94 L 720.75 98.81 L 721.75 97.50 L 722.50 96.00 L 723.19 94.88 L 723.81 94.13 L 724.38 93.75 L 724.88 93.75 L 725.25 93.56 L 725.50 93.19 L 725.63 92.63 L 725.63 91.88 L 725.88 91.19 L 726.38 90.56 L 727.13 90.00 L 728.13 89.50 L 729.06 88.50 L 729.94 87.00 L 730.75 85.00 L 731.50 82.50 L 732.19 80.56 L 732.81 79.19 L 733.38 78.38 L 733.88 78.13 L 734.25 77.56 L 734.50 76.69 L 734.63 75.50 L 734.63 74.00 L 734.75 72.81 L 735.00 71.94 L 735.38 71.38 L 735.88 71.13 L 736.25 69.88 L 736.50 67.63 L 736.63 64.38 L 736.63 60.13 L 736.19 55.88 L 735.31 51.63 L 734.00 47.38 L 732.25 43.13 L 730.69 39.81 L 729.31 37.44 L 728.13 36.00 L 727.13 35.50 L 726.06 34.63 L 724.94 33.38 L 723.75 31.75 L 722.50 29.75 L 721.31 28.19 L 720.19 27.06 L 719.13 26.38 L 718.13 26.13 L 717.13 25.63 L 716.13 24.88 L 715.13 23.88 L 714.13 22.63 L 713.19 21.69 L 712.31 21.06 L 711.50 20.75 L 710.75 20.75 L 710.19 20.63 L 709.81 20.38 L 709.63 20.00 L 709.63 19.50 L 708.75 18.81 L 707.00 17.94 L 704.38 16.88 L 700.88 15.63 L 697.38 14.69 L 693.88 14.06 L 690.38 13.75 L 686.88 13.75 L 683.56 14.06 L 680.44 14.69 L 677.50 15.63 L 674.75 16.88 L 672.69 17.94 L 671.31 18.81 L 670.63 19.50 L 670.63 20.00 L 670.25 20.56 L 669.50 21.19 L 668.38 21.88 L 666.88 22.63 L 665.56 23.44 L 664.44 24.31 L 663.50 25.25 L 662.75 26.25 L 662.13 27.38 L 661.63 28.63 L 661.25 30.00 L 661.00 31.50 L 661.00 33.06 L 661.25 34.69 L 661.75 36.38 L 662.50 38.13 L 663.25 39.31 L 664.00 39.94 L 664.75 40.00 L 665.50 39.50 L 666.06 38.88 L 666.44 38.13 L 666.63 37.25 L 666.63 36.25 L 667.00 35.25 L 667.75 34.25 L 668.88 33.25 L 670.38 32.25 L 672.13 31.50 L 674.13 31.00 L 676.38 30.75 L 678.88 30.75 L 680.75 30.88 L 682.00 31.13 L 682.63 31.50 L 682.63 32.00 L 682.81 32.38 L 683.19 32.63 L 683.75 32.75 L 684.50 32.75 L 685.25 32.94 L 686.00 33.31 L 686.75 33.88 L 687.50 34.63 L 688.25 35.88 L 689.00 37.63 L 689.75 39.88 L 690.50 42.63 L 690.88 45.06 L 690.88 47.19 L 690.50 49.00 L 689.75 50.50 L 688.69 52.00 L 687.31 53.50 L 685.63 55.00 L 683.63 56.50 L 680.94 57.63 L 677.56 58.38 L 673.50 58.75 L 668.75 58.75 L 664.75 58.50 L 661.50 58.00 L 659.00 57.25 L 657.25 56.25 L 655.56 55.00 L 653.94 53.50 L 652.38 51.75 L 650.88 49.75 L 649.75 47.00 L 649.00 43.50 L 648.63 39.25 L 648.63 34.25 L 648.94 29.88 L 649.56 26.13 L 650.50 23.00 L 651.75 20.50 L 652.81 18.63 L 653.69 17.38 L 654.38 16.75 L 654.88 16.75 L 655.56 16.31 L 656.44 15.44 L 657.50 14.13 L 658.75 12.38 L 660.25 10.69 L 662.00 9.06 L 664.00 7.50 L 666.25 6.00 L 668.50 4.69 L 670.75 3.56 L 673.00 2.63 L 675.25 1.88 L 677.63 1.31 L 680.13 0.94 L 682.75 0.75 L 685.50 0.75 L 687.56 0.69 L 688.94 0.56 L 689.63 0.38 L 689.63 0.13 L 690.63 0.00 L 692.63 0.00 Z
    M 65.25 128.50 L 71.00 129.00 L 75.38 129.50 L 78.38 130.00 L 80.00 130.50 L 80.25 131.00 L 80.69 131.38 L 81.31 131.63 L 82.13 131.75 L 83.13 131.75 L 84.31 132.00 L 85.69 132.50 L 87.25 133.25 L 89.00 134.25 L 90.38 135.19 L 91.38 136.06 L 92.00 136.88 L 92.25 137.63 L 92.81 138.44 L 93.69 139.31 L 94.88 140.25 L 96.38 141.25 L 97.94 142.75 L 99.56 144.75 L 101.25 147.25 L 103.00 150.25 L 104.31 152.75 L 105.19 154.75 L 105.63 156.25 L 105.63 157.25 L 105.75 158.06 L 106.00 158.69 L 106.38 159.13 L 106.88 159.38 L 107.25 160.06 L 107.50 161.19 L 107.63 162.75 L 107.63 164.75 L 107.75 166.38 L 108.00 167.63 L 108.38 168.50 L 108.88 169.00 L 109.25 171.00 L 109.50 174.50 L 109.63 179.50 L 109.63 186.00 L 109.50 191.00 L 109.25 194.50 L 108.88 196.50 L 108.38 197.00 L 108.00 198.00 L 107.75 199.50 L 107.63 201.50 L 107.63 204.00 L 107.50 205.94 L 107.25 207.31 L 106.88 208.13 L 106.38 208.38 L 106.00 208.94 L 105.75 209.81 L 105.63 211.00 L 105.63 212.50 L 105.50 213.63 L 105.25 214.38 L 104.88 214.75 L 104.38 214.75 L 103.81 215.81 L 103.19 217.94 L 102.50 221.13 L 101.75 225.38 L 101.06 228.63 L 100.44 230.88 L 99.88 232.13 L 99.38 232.38 L 99.00 232.88 L 98.75 233.63 L 98.63 234.63 L 98.63 235.88 L 98.50 236.88 L 98.25 237.63 L 97.88 238.13 L 97.38 238.38 L 96.56 240.06 L 95.44 243.19 L 94.00 247.75 L 92.25 253.75 L 90.81 258.31 L 89.69 261.44 L 88.88 263.13 L 88.38 263.38 L 88.00 263.94 L 87.75 264.81 L 87.63 266.00 L 87.63 267.50 L 87.50 268.69 L 87.25 269.56 L 86.88 270.13 L 86.38 270.38 L 85.88 271.19 L 85.38 272.56 L 84.88 274.50 L 84.38 277.00 L 84.00 280.00 L 83.75 283.50 L 83.63 287.50 L 83.63 292.00 L 83.88 295.81 L 84.38 298.94 L 85.13 301.38 L 86.13 303.13 L 87.31 304.75 L 88.69 306.25 L 90.25 307.63 L 92.00 308.88 L 94.13 309.63 L 96.63 309.88 L 99.50 309.63 L 102.75 308.88 L 106.19 307.50 L 109.81 305.50 L 113.63 302.88 L 117.63 299.63 L 120.81 296.81 L 123.19 294.44 L 124.75 292.50 L 125.50 291.00 L 126.31 289.69 L 127.19 288.56 L 128.13 287.63 L 129.13 286.88 L 129.88 286.13 L 130.38 285.38 L 130.63 284.63 L 130.63 283.88 L 130.75 283.31 L 131.00 282.94 L 131.38 282.75 L 131.88 282.75 L 132.25 282.56 L 132.50 282.19 L 132.63 281.63 L 132.63 280.88 L 132.81 280.19 L 133.19 279.56 L 133.75 279.00 L 134.50 278.50 L 135.19 277.69 L 135.81 276.56 L 136.38 275.13 L 136.88 273.38 L 137.38 272.06 L 137.88 271.19 L 138.38 270.75 L 138.88 270.75 L 139.25 270.50 L 139.50 270.00 L 139.63 269.25 L 139.63 268.25 L 139.75 267.50 L 140.00 267.00 L 140.38 266.75 L 140.88 266.75 L 141.56 265.69 L 142.44 263.56 L 143.50 260.38 L 144.75 256.13 L 145.81 252.88 L 146.69 250.63 L 147.38 249.38 L 147.88 249.13 L 148.25 248.56 L 148.50 247.69 L 148.63 246.50 L 148.63 245.00 L 148.75 243.81 L 149.00 242.94 L 149.38 242.38 L 149.88 242.13 L 150.44 240.88 L 151.06 238.63 L 151.75 235.38 L 152.50 231.13 L 153.06 226.13 L 153.44 220.38 L 153.63 213.88 L 153.63 206.63 L 153.19 199.69 L 152.31 193.06 L 151.00 186.75 L 149.25 180.75 L 147.81 176.19 L 146.69 173.06 L 145.88 171.38 L 145.38 171.13 L 144.81 170.31 L 144.19 168.94 L 143.50 167.00 L 142.75 164.50 L 142.06 162.63 L 141.44 161.38 L 140.88 160.75 L 140.38 160.75 L 140.00 160.50 L 139.75 160.00 L 139.63 159.25 L 139.63 158.25 L 139.50 157.50 L 139.25 157.00 L 138.88 156.75 L 138.38 156.75 L 138.00 156.00 L 137.75 154.50 L 137.63 152.25 L 137.63 149.25 L 139.00 146.06 L 141.75 142.69 L 145.88 139.13 L 151.38 135.38 L 156.50 132.56 L 161.25 130.69 L 165.63 129.75 L 169.63 129.75 L 172.88 130.06 L 175.38 130.69 L 177.13 131.63 L 178.13 132.88 L 179.19 134.63 L 180.31 136.88 L 181.50 139.63 L 182.75 142.88 L 183.88 146.50 L 184.88 150.50 L 185.75 154.88 L 186.50 159.63 L 187.00 165.00 L 187.25 171.00 L 187.25 177.63 L 187.00 184.88 L 186.69 190.44 L 186.31 194.31 L 185.88 196.50 L 185.38 197.00 L 185.00 197.94 L 184.75 199.31 L 184.63 201.13 L 184.63 203.38 L 184.19 206.81 L 183.31 211.44 L 182.00 217.25 L 180.25 224.25 L 178.81 229.56 L 177.69 233.19 L 176.88 235.13 L 176.38 235.38 L 176.00 235.81 L 175.75 236.44 L 175.63 237.25 L 175.63 238.25 L 175.31 239.88 L 174.69 242.13 L 173.75 245.00 L 172.50 248.50 L 171.44 251.13 L 170.56 252.88 L 169.88 253.75 L 169.38 253.75 L 169.00 254.00 L 168.75 254.50 L 168.63 255.25 L 168.63 256.25 L 168.50 257.06 L 168.25 257.69 L 167.88 258.13 L 167.38 258.38 L 167.00 258.81 L 166.75 259.44 L 166.63 260.25 L 166.63 261.25 L 166.50 262.06 L 166.25 262.69 L 165.88 263.13 L 165.38 263.38 L 165.00 263.75 L 164.75 264.25 L 164.63 264.88 L 164.63 265.63 L 163.94 267.44 L 162.56 270.31 L 160.50 274.25 L 157.75 279.25 L 155.50 283.13 L 153.75 285.88 L 152.50 287.50 L 151.75 288.00 L 151.19 288.56 L 150.81 289.19 L 150.63 289.88 L 150.63 290.63 L 150.50 291.19 L 150.25 291.56 L 149.88 291.75 L 149.38 291.75 L 148.69 292.31 L 147.81 293.44 L 146.75 295.13 L 145.50 297.38 L 144.44 299.06 L 143.56 300.19 L 142.88 300.75 L 142.38 300.75 L 141.69 301.25 L 140.81 302.25 L 139.75 303.75 L 138.50 305.75 L 136.88 307.75 L 134.88 309.75 L 132.50 311.75 L 129.75 313.75 L 127.56 315.50 L 125.94 317.00 L 124.88 318.25 L 124.38 319.25 L 123.81 320.00 L 123.19 320.50 L 122.50 320.75 L 121.75 320.75 L 120.31 321.31 L 118.19 322.44 L 115.38 324.13 L 111.88 326.38 L 108.88 328.06 L 106.38 329.19 L 104.38 329.75 L 102.88 329.75 L 101.69 329.88 L 100.81 330.13 L 100.25 330.50 L 100.00 331.00 L 98.56 331.38 L 95.94 331.63 L 92.13 331.75 L 87.13 331.75 L 83.25 331.63 L 80.50 331.38 L 78.88 331.00 L 78.38 330.50 L 77.50 330.13 L 76.25 329.88 L 74.63 329.75 L 72.63 329.75 L 71.13 329.63 L 70.13 329.38 L 69.63 329.00 L 69.63 328.50 L 69.38 328.13 L 68.88 327.88 L 68.13 327.75 L 67.13 327.75 L 65.81 327.44 L 64.19 326.81 L 62.25 325.88 L 60.00 324.63 L 58.31 323.56 L 57.19 322.69 L 56.63 322.00 L 56.63 321.50 L 56.19 320.81 L 55.31 319.94 L 54.00 318.88 L 52.25 317.63 L 50.50 315.94 L 48.75 313.81 L 47.00 311.25 L 45.25 308.25 L 43.94 305.81 L 43.06 303.94 L 42.63 302.63 L 42.63 301.88 L 42.50 301.25 L 42.25 300.75 L 41.88 300.38 L 41.38 300.13 L 41.00 299.50 L 40.75 298.50 L 40.63 297.13 L 40.63 295.38 L 40.50 294.00 L 40.25 293.00 L 39.88 292.38 L 39.38 292.13 L 39.00 290.31 L 38.75 286.94 L 38.63 282.00 L 38.63 275.50 L 38.75 270.56 L 39.00 267.19 L 39.38 265.38 L 39.88 265.13 L 40.25 264.38 L 40.50 263.13 L 40.63 261.38 L 40.63 259.13 L 40.75 257.38 L 41.00 256.13 L 41.38 255.38 L 41.88 255.13 L 42.25 254.56 L 42.50 253.69 L 42.63 252.50 L 42.63 251.00 L 42.94 249.13 L 43.56 246.88 L 44.50 244.25 L 45.75 241.25 L 46.69 238.69 L 47.31 236.56 L 47.63 234.88 L 47.63 233.63 L 47.75 232.63 L 48.00 231.88 L 48.38 231.38 L 48.88 231.13 L 49.25 230.63 L 49.50 229.88 L 49.63 228.88 L 49.63 227.63 L 49.75 226.69 L 50.00 226.06 L 50.38 225.75 L 50.88 225.75 L 51.25 225.44 L 51.50 224.81 L 51.63 223.88 L 51.63 222.63 L 51.94 221.06 L 52.56 219.19 L 53.50 217.00 L 54.75 214.50 L 55.69 212.38 L 56.31 210.63 L 56.63 209.25 L 56.63 208.25 L 56.75 207.44 L 57.00 206.81 L 57.38 206.38 L 57.88 206.13 L 58.25 205.63 L 58.50 204.88 L 58.63 203.88 L 58.63 202.63 L 58.75 201.63 L 59.00 200.88 L 59.38 200.38 L 59.88 200.13 L 60.56 198.69 L 61.44 196.06 L 62.50 192.25 L 63.75 187.25 L 64.69 182.94 L 65.31 179.31 L 65.63 176.38 L 65.63 174.13 L 65.75 172.38 L 66.00 171.13 L 66.38 170.38 L 66.88 170.13 L 67.25 169.44 L 67.50 168.31 L 67.63 166.75 L 67.63 164.75 L 67.50 163.13 L 67.25 161.88 L 66.88 161.00 L 66.38 160.50 L 65.88 159.50 L 65.38 158.00 L 64.88 156.00 L 64.38 153.50 L 63.81 151.44 L 63.19 149.81 L 62.50 148.63 L 61.75 147.88 L 60.63 147.31 L 59.13 146.94 L 57.25 146.75 L 55.00 146.75 L 53.00 146.94 L 51.25 147.31 L 49.75 147.88 L 48.50 148.63 L 47.56 149.31 L 46.94 149.94 L 46.63 150.50 L 46.63 151.00 L 46.06 151.81 L 44.94 152.94 L 43.25 154.38 L 41.00 156.13 L 39.31 157.63 L 38.19 158.88 L 37.63 159.88 L 37.63 160.63 L 37.25 161.69 L 36.50 163.06 L 35.38 164.75 L 33.88 166.75 L 32.63 169.00 L 31.63 171.50 L 30.88 174.25 L 30.38 177.25 L 30.06 180.13 L 29.94 182.88 L 30.00 185.50 L 30.25 188.00 L 30.50 190.06 L 30.75 191.69 L 31.00 192.88 L 31.25 193.63 L 31.56 194.19 L 31.94 194.56 L 32.38 194.75 L 32.88 194.75 L 33.25 194.94 L 33.50 195.31 L 33.63 195.88 L 33.63 196.63 L 34.06 197.56 L 34.94 198.69 L 36.25 200.00 L 38.00 201.50 L 39.38 202.94 L 40.38 204.31 L 41.00 205.63 L 41.25 206.88 L 41.31 208.38 L 41.19 210.13 L 40.88 212.13 L 40.38 214.38 L 39.50 216.44 L 38.25 218.31 L 36.63 220.00 L 34.63 221.50 L 33.13 222.75 L 32.13 223.75 L 31.63 224.50 L 31.63 225.00 L 31.31 225.56 L 30.69 226.19 L 29.75 226.88 L 28.50 227.63 L 26.63 228.06 L 24.13 228.19 L 21.00 228.00 L 17.25 227.50 L 13.88 226.44 L 10.88 224.81 L 8.25 222.63 L 6.00 219.88 L 4.13 216.94 L 2.63 213.81 L 1.50 210.50 L 0.75 207.00 L 0.25 203.50 L 0.00 200.00 L 0.00 196.50 L 0.25 193.00 L 0.56 190.25 L 0.94 188.25 L 1.38 187.00 L 1.88 186.50 L 2.38 185.44 L 2.88 183.81 L 3.38 181.63 L 3.88 178.88 L 4.38 176.75 L 4.88 175.25 L 5.38 174.38 L 5.88 174.13 L 6.25 173.69 L 6.50 173.06 L 6.63 172.25 L 6.63 171.25 L 6.75 170.50 L 7.00 170.00 L 7.38 169.75 L 7.88 169.75 L 8.25 169.50 L 8.50 169.00 L 8.63 168.25 L 8.63 167.25 L 8.94 166.13 L 9.56 164.88 L 10.50 163.50 L 11.75 162.00 L 12.69 160.69 L 13.31 159.56 L 13.63 158.63 L 13.63 157.88 L 13.75 157.31 L 14.00 156.94 L 14.38 156.75 L 14.88 156.75 L 15.56 156.19 L 16.44 155.06 L 17.50 153.38 L 18.75 151.13 L 19.81 149.44 L 20.69 148.31 L 21.38 147.75 L 21.88 147.75 L 22.25 147.63 L 22.50 147.38 L 22.63 147.00 L 22.63 146.50 L 23.56 145.38 L 25.44 143.63 L 28.25 141.25 L 32.00 138.25 L 35.31 135.88 L 38.19 134.13 L 40.63 133.00 L 42.63 132.50 L 44.19 132.00 L 45.31 131.50 L 46.00 131.00 L 46.25 130.50 L 47.06 130.06 L 48.44 129.69 L 50.38 129.38 L 52.88 129.13 L 54.75 128.88 L 56.00 128.63 L 56.63 128.38 L 56.63 128.13 L 58.06 128.06 L 60.94 128.19 Z
    M 786.75 86.25 L 785.50 87.25 L 784.56 88.13 L 783.94 88.88 L 783.63 89.50 L 783.63 90.00 L 782.94 90.69 L 781.56 91.56 L 779.50 92.63 L 776.75 93.88 L 774.69 94.94 L 773.31 95.81 L 772.63 96.50 L 772.63 97.00 L 772.38 97.38 L 771.88 97.63 L 771.13 97.75 L 770.13 97.75 L 769.38 97.88 L 768.88 98.13 L 768.63 98.50 L 768.63 99.00 L 767.38 99.63 L 764.88 100.38 L 761.13 101.25 L 756.13 102.25 L 753.13 103.06 L 752.13 103.69 L 753.13 104.13 L 756.13 104.38 L 758.44 104.44 L 760.06 104.31 L 761.00 104.00 L 761.25 103.50 L 762.56 102.81 L 764.94 101.94 L 768.38 100.88 L 772.88 99.63 L 776.25 98.56 L 778.50 97.69 L 779.63 97.00 L 779.63 96.50 L 779.94 96.13 L 780.56 95.88 L 781.50 95.75 L 782.75 95.75 L 783.81 95.88 L 784.69 96.13 L 785.38 96.50 L 785.88 97.00 L 786.19 97.69 L 786.31 98.56 L 786.25 99.63 L 786.00 100.88 L 785.31 101.94 L 784.19 102.81 L 782.63 103.50 L 780.63 104.00 L 779.13 104.50 L 778.13 105.00 L 777.63 105.50 L 777.63 106.00 L 777.06 106.63 L 775.94 107.38 L 774.25 108.25 L 772.00 109.25 L 770.69 110.06 L 770.31 110.69 L 770.88 111.13 L 772.38 111.38 L 773.56 111.69 L 774.44 112.06 L 775.00 112.50 L 775.25 113.00 L 775.81 113.38 L 776.69 113.63 L 777.88 113.75 L 779.38 113.75 L 780.56 113.88 L 781.44 114.13 L 782.00 114.50 L 782.25 115.00 L 783.94 115.50 L 787.06 116.00 L 791.63 116.50 L 797.63 117.00 L 802.25 117.50 L 805.50 118.00 L 807.38 118.50 L 807.88 119.00 L 808.25 119.69 L 808.50 120.56 L 808.63 121.63 L 808.63 122.88 L 808.44 123.94 L 808.06 124.81 L 807.50 125.50 L 806.75 126.00 L 806.00 126.25 L 805.25 126.25 L 804.50 126.00 L 803.75 125.50 L 802.44 125.13 L 800.56 124.88 L 798.13 124.75 L 795.13 124.75 L 792.75 124.63 L 791.00 124.38 L 789.88 124.00 L 789.38 123.50 L 788.31 123.13 L 786.69 122.88 L 784.50 122.75 L 781.75 122.75 L 778.81 122.56 L 775.69 122.19 L 772.38 121.63 L 768.88 120.88 L 766.69 121.31 L 765.81 122.94 L 766.25 125.75 L 768.00 129.75 L 769.31 133.06 L 770.19 135.69 L 770.63 137.63 L 770.63 138.88 L 770.19 139.81 L 769.31 140.44 L 768.00 140.75 L 766.25 140.75 L 764.50 139.56 L 762.75 137.19 L 761.00 133.63 L 759.25 128.88 L 757.81 125.31 L 756.69 122.94 L 755.88 121.75 L 755.38 121.75 L 755.00 121.63 L 754.75 121.38 L 754.63 121.00 L 754.63 120.50 L 754.31 119.88 L 753.69 119.13 L 752.75 118.25 L 751.50 117.25 L 750.75 117.19 L 750.50 118.06 L 750.75 119.88 L 751.50 122.63 L 752.13 125.63 L 752.63 128.88 L 753.00 132.38 L 753.25 136.13 L 754.00 139.00 L 755.25 141.00 L 757.00 142.13 L 759.25 142.38 L 761.69 143.00 L 764.31 144.00 L 767.13 145.38 L 770.13 147.13 L 772.50 148.63 L 774.25 149.88 L 775.38 150.88 L 775.88 151.63 L 776.56 151.75 L 777.44 151.25 L 778.50 150.13 L 779.75 148.38 L 781.13 146.88 L 782.63 145.63 L 784.25 144.63 L 786.00 143.88 L 787.31 143.19 L 788.19 142.56 L 788.63 142.00 L 788.63 141.50 L 788.88 141.13 L 789.38 140.88 L 790.13 140.75 L 791.13 140.75 L 791.88 140.63 L 792.38 140.38 L 792.63 140.00 L 792.63 139.50 L 792.94 139.13 L 793.56 138.88 L 794.50 138.75 L 795.75 138.75 L 796.81 138.63 L 797.69 138.38 L 798.38 138.00 L 798.88 137.50 L 800.50 137.13 L 803.25 136.88 L 807.13 136.75 L 812.13 136.75 L 815.88 136.56 L 818.38 136.19 L 819.63 135.63 L 819.63 134.88 L 819.50 134.25 L 819.25 133.75 L 818.88 133.38 L 818.38 133.13 L 818.00 132.25 L 817.75 130.75 L 817.63 128.63 L 817.63 125.88 L 817.75 123.75 L 818.00 122.25 L 818.38 121.38 L 818.88 121.13 L 819.25 120.63 L 819.50 119.88 L 819.63 118.88 L 819.63 117.63 L 819.88 116.25 L 820.38 114.75 L 821.13 113.13 L 822.13 111.38 L 822.31 109.94 L 821.69 108.81 L 820.25 108.00 L 818.00 107.50 L 816.25 107.00 L 815.00 106.50 L 814.25 106.00 L 814.00 105.50 L 813.44 105.06 L 812.56 104.69 L 811.38 104.38 L 809.88 104.13 L 808.38 103.69 L 806.88 103.06 L 805.38 102.25 L 803.88 101.25 L 802.75 100.38 L 802.00 99.63 L 801.63 99.00 L 801.63 98.50 L 801.50 98.13 L 801.25 97.88 L 800.88 97.75 L 800.38 97.75 L 800.00 97.63 L 799.75 97.38 L 799.63 97.00 L 799.63 96.50 L 799.06 95.69 L 797.94 94.56 L 796.25 93.13 L 794.00 91.38 L 792.25 89.81 L 791.00 88.44 L 790.25 87.25 L 790.00 86.25 L 789.75 85.50 L 789.50 85.00 L 789.25 84.75 L 789.00 84.75 L 788.50 85.00 L 787.75 85.50 Z
    M 737.75 225.13 L 736.50 225.38 L 734.94 226.19 L 733.06 227.56 L 730.88 229.50 L 728.38 232.00 L 726.38 234.25 L 724.88 236.25 L 723.88 238.00 L 723.38 239.50 L 722.88 240.63 L 722.38 241.38 L 721.88 241.75 L 721.38 241.75 L 721.00 241.94 L 720.75 242.31 L 720.63 242.88 L 720.63 243.63 L 720.50 244.19 L 720.25 244.56 L 719.88 244.75 L 719.38 244.75 L 718.88 245.00 L 718.38 245.50 L 717.88 246.25 L 717.38 247.25 L 716.81 248.69 L 716.19 250.56 L 715.50 252.88 L 714.75 255.63 L 714.06 257.75 L 713.44 259.25 L 712.88 260.13 L 712.38 260.38 L 712.00 260.88 L 711.75 261.63 L 711.63 262.63 L 711.63 263.88 L 711.50 264.81 L 711.25 265.44 L 710.88 265.75 L 710.38 265.75 L 709.81 267.38 L 709.19 270.63 L 708.50 275.50 L 707.75 282.00 L 707.38 287.31 L 707.38 291.44 L 707.75 294.38 L 708.50 296.13 L 709.31 297.63 L 710.19 298.88 L 711.13 299.88 L 712.13 300.63 L 713.44 301.00 L 715.06 301.00 L 717.00 300.63 L 719.25 299.88 L 720.94 299.19 L 722.06 298.56 L 722.63 298.00 L 722.63 297.50 L 723.06 296.81 L 723.94 295.94 L 725.25 294.88 L 727.00 293.63 L 728.63 292.00 L 730.13 290.00 L 731.50 287.63 L 732.75 284.88 L 733.94 282.63 L 735.06 280.88 L 736.13 279.63 L 737.13 278.88 L 738.19 277.19 L 739.31 274.56 L 740.50 271.00 L 741.75 266.50 L 742.81 263.06 L 743.69 260.69 L 744.38 259.38 L 744.88 259.13 L 745.25 258.50 L 745.50 257.50 L 745.63 256.13 L 745.63 254.38 L 745.75 253.00 L 746.00 252.00 L 746.38 251.38 L 746.88 251.13 L 747.25 249.63 L 747.50 246.88 L 747.63 242.88 L 747.63 237.63 L 747.50 233.69 L 747.25 231.06 L 746.88 229.75 L 746.38 229.75 L 746.00 229.56 L 745.75 229.19 L 745.63 228.63 L 745.63 227.88 L 745.31 227.19 L 744.69 226.56 L 743.75 226.00 L 742.50 225.50 L 741.50 225.13 L 740.75 224.88 L 740.25 224.75 L 740.00 224.75 L 739.50 224.81 L 738.75 224.94 Z
    M 310.50 226.38 L 307.75 228.13 L 305.31 230.00 L 303.19 232.00 L 301.38 234.13 L 299.88 236.38 L 298.69 238.38 L 297.81 240.13 L 297.25 241.63 L 297.00 242.88 L 296.69 243.81 L 296.31 244.44 L 295.88 244.75 L 295.38 244.75 L 294.88 245.25 L 294.38 246.25 L 293.88 247.75 L 293.38 249.75 L 292.88 251.25 L 292.38 252.25 L 291.88 252.75 L 291.38 252.75 L 291.00 253.06 L 290.75 253.69 L 290.63 254.63 L 290.63 255.88 L 290.31 257.50 L 289.69 259.50 L 288.75 261.88 L 287.50 264.63 L 286.56 267.06 L 285.94 269.19 L 285.63 271.00 L 285.63 272.50 L 285.50 273.69 L 285.25 274.56 L 284.88 275.13 L 284.38 275.38 L 284.00 276.81 L 283.75 279.44 L 283.63 283.25 L 283.63 288.25 L 283.88 292.31 L 284.38 295.44 L 285.13 297.63 L 286.13 298.88 L 287.38 299.81 L 288.88 300.44 L 290.63 300.75 L 292.63 300.75 L 294.63 300.31 L 296.63 299.44 L 298.63 298.13 L 300.63 296.38 L 302.44 294.50 L 304.06 292.50 L 305.50 290.38 L 306.75 288.13 L 307.81 286.44 L 308.69 285.31 L 309.38 284.75 L 309.88 284.75 L 310.44 284.13 L 311.06 282.88 L 311.75 281.00 L 312.50 278.50 L 313.31 276.31 L 314.19 274.44 L 315.13 272.88 L 316.13 271.63 L 316.88 270.38 L 317.38 269.13 L 317.63 267.88 L 317.63 266.63 L 317.75 265.69 L 318.00 265.06 L 318.38 264.75 L 318.88 264.75 L 319.44 263.88 L 320.06 262.13 L 320.75 259.50 L 321.50 256.00 L 322.06 252.13 L 322.44 247.88 L 322.63 243.25 L 322.63 238.25 L 322.56 234.31 L 322.44 231.44 L 322.25 229.63 L 322.00 228.88 L 321.44 228.06 L 320.56 227.19 L 319.38 226.25 L 317.88 225.25 L 316.69 224.50 L 315.81 224.00 L 315.25 223.75 L 315.00 223.75 L 314.13 224.19 L 312.63 225.06 Z
    M 677.50 153.75 L 680.75 153.75 L 683.44 153.81 L 685.56 153.94 L 687.13 154.13 L 688.13 154.38 L 688.88 154.69 L 689.38 155.06 L 689.63 155.50 L 689.63 156.00 L 689.88 156.38 L 690.38 156.63 L 691.13 156.75 L 692.13 156.75 L 692.88 156.88 L 693.38 157.13 L 693.63 157.50 L 693.63 158.00 L 693.75 158.38 L 694.00 158.63 L 694.38 158.75 L 694.88 158.75 L 695.25 158.88 L 695.50 159.13 L 695.63 159.50 L 695.63 160.00 L 695.94 160.63 L 696.56 161.38 L 697.50 162.25 L 698.75 163.25 L 699.88 164.69 L 700.88 166.56 L 701.75 168.88 L 702.50 171.63 L 703.00 174.38 L 703.25 177.13 L 703.25 179.88 L 703.00 182.63 L 702.25 185.44 L 701.00 188.31 L 699.25 191.25 L 697.00 194.25 L 694.50 196.75 L 691.75 198.75 L 688.75 200.25 L 685.50 201.25 L 682.44 201.94 L 679.56 202.31 L 676.88 202.38 L 674.38 202.13 L 672.13 201.75 L 670.13 201.25 L 668.38 200.63 L 666.88 199.88 L 665.75 199.19 L 665.00 198.56 L 664.63 198.00 L 664.63 197.50 L 664.50 197.13 L 664.25 196.88 L 663.88 196.75 L 663.38 196.75 L 662.69 196.38 L 661.81 195.63 L 660.75 194.50 L 659.50 193.00 L 658.56 191.69 L 657.94 190.56 L 657.63 189.63 L 657.63 188.88 L 657.50 188.31 L 657.25 187.94 L 656.88 187.75 L 656.38 187.75 L 655.88 187.00 L 655.38 185.50 L 654.88 183.25 L 654.38 180.25 L 654.44 177.06 L 655.06 173.69 L 656.25 170.13 L 658.00 166.38 L 659.44 163.56 L 660.56 161.69 L 661.38 160.75 L 661.88 160.75 L 662.38 160.50 L 662.88 160.00 L 663.38 159.25 L 663.88 158.25 L 664.75 157.38 L 666.00 156.63 L 667.63 156.00 L 669.63 155.50 L 671.13 155.06 L 672.13 154.69 L 672.63 154.38 L 672.63 154.13 L 673.44 153.94 L 675.06 153.81 Z
    M 621.63 154.13 L 625.63 154.38 L 629.13 154.94 L 632.13 155.81 L 634.63 157.00 L 636.63 158.50 L 638.13 159.81 L 639.13 160.94 L 639.63 161.88 L 639.63 162.63 L 639.88 163.50 L 640.38 164.50 L 641.13 165.63 L 642.13 166.88 L 642.88 168.69 L 643.38 171.06 L 643.63 174.00 L 643.63 177.50 L 643.25 180.69 L 642.50 183.56 L 641.38 186.13 L 639.88 188.38 L 638.25 190.38 L 636.50 192.13 L 634.63 193.63 L 632.63 194.88 L 630.19 195.81 L 627.31 196.44 L 624.00 196.75 L 620.25 196.75 L 617.44 196.63 L 615.56 196.38 L 614.63 196.00 L 614.63 195.50 L 614.25 195.06 L 613.50 194.69 L 612.38 194.38 L 610.88 194.13 L 609.44 193.63 L 608.06 192.88 L 606.75 191.88 L 605.50 190.63 L 604.56 189.50 L 603.94 188.50 L 603.63 187.63 L 603.63 186.88 L 603.50 186.31 L 603.25 185.94 L 602.88 185.75 L 602.38 185.75 L 602.00 185.50 L 601.75 185.00 L 601.63 184.25 L 601.63 183.25 L 601.50 182.50 L 601.25 182.00 L 600.88 181.75 L 600.38 181.75 L 600.00 181.00 L 599.75 179.50 L 599.63 177.25 L 599.63 174.25 L 600.19 171.19 L 601.31 168.06 L 603.00 164.88 L 605.25 161.63 L 607.38 159.06 L 609.38 157.19 L 611.25 156.00 L 613.00 155.50 L 614.31 155.06 L 615.19 154.69 L 615.63 154.38 L 615.63 154.13 L 616.63 154.00 L 618.63 154.00 Z
    M 532.25 167.75 L 536.00 167.75 L 538.88 167.88 L 540.88 168.13 L 542.00 168.50 L 542.25 169.00 L 542.63 169.38 L 543.13 169.63 L 543.75 169.75 L 544.50 169.75 L 545.31 170.06 L 546.19 170.69 L 547.13 171.63 L 548.13 172.88 L 549.00 173.81 L 549.75 174.44 L 550.38 174.75 L 550.88 174.75 L 551.50 175.31 L 552.25 176.44 L 553.13 178.13 L 554.13 180.38 L 554.75 182.94 L 555.00 185.81 L 554.88 189.00 L 554.38 192.50 L 553.56 195.63 L 552.44 198.38 L 551.00 200.75 L 549.25 202.75 L 547.38 204.50 L 545.38 206.00 L 543.25 207.25 L 541.00 208.25 L 538.50 208.88 L 535.75 209.13 L 532.75 209.00 L 529.50 208.50 L 527.06 208.00 L 525.44 207.50 L 524.63 207.00 L 524.63 206.50 L 524.44 206.13 L 524.06 205.88 L 523.50 205.75 L 522.75 205.75 L 521.88 205.44 L 520.88 204.81 L 519.75 203.88 L 518.50 202.63 L 517.50 201.38 L 516.75 200.13 L 516.25 198.88 L 516.00 197.63 L 515.69 196.63 L 515.31 195.88 L 514.88 195.38 L 514.38 195.13 L 514.00 194.06 L 513.75 192.19 L 513.63 189.50 L 513.63 186.00 L 513.75 183.38 L 514.00 181.63 L 514.38 180.75 L 514.88 180.75 L 515.25 180.50 L 515.50 180.00 L 515.63 179.25 L 515.63 178.25 L 515.75 177.50 L 516.00 177.00 L 516.38 176.75 L 516.88 176.75 L 517.56 176.31 L 518.44 175.44 L 519.50 174.13 L 520.75 172.38 L 521.94 171.00 L 523.06 170.00 L 524.13 169.38 L 525.13 169.13 L 525.88 168.88 L 526.38 168.63 L 526.63 168.38 L 526.63 168.13 L 527.56 167.94 L 529.44 167.81 Z
    M 448.63 228.00 L 446.63 229.50 L 444.69 231.38 L 442.81 233.63 L 441.00 236.25 L 439.25 239.25 L 437.81 242.19 L 436.69 245.06 L 435.88 247.88 L 435.38 250.63 L 434.88 252.75 L 434.38 254.25 L 433.88 255.13 L 433.38 255.38 L 433.00 256.25 L 432.75 257.75 L 432.63 259.88 L 432.63 262.63 L 432.75 264.69 L 433.00 266.06 L 433.38 266.75 L 433.88 266.75 L 434.25 266.63 L 434.50 266.38 L 434.63 266.00 L 434.63 265.50 L 434.88 265.13 L 435.38 264.88 L 436.13 264.75 L 437.13 264.75 L 437.88 264.63 L 438.38 264.38 L 438.63 264.00 L 438.63 263.50 L 438.81 263.13 L 439.19 262.88 L 439.75 262.75 L 440.50 262.75 L 441.19 262.56 L 441.81 262.19 L 442.38 261.63 L 442.88 260.88 L 443.44 260.31 L 444.06 259.94 L 444.75 259.75 L 445.50 259.75 L 446.19 259.50 L 446.81 259.00 L 447.38 258.25 L 447.88 257.25 L 448.50 256.38 L 449.25 255.63 L 450.13 255.00 L 451.13 254.50 L 451.88 253.94 L 452.38 253.31 L 452.63 252.63 L 452.63 251.88 L 452.75 251.31 L 453.00 250.94 L 453.38 250.75 L 453.88 250.75 L 454.44 250.25 L 455.06 249.25 L 455.75 247.75 L 456.50 245.75 L 457.06 243.38 L 457.44 240.63 L 457.63 237.50 L 457.63 234.00 L 457.50 231.19 L 457.25 229.06 L 456.88 227.63 L 456.38 226.88 L 455.81 226.31 L 455.19 225.94 L 454.50 225.75 L 453.75 225.75 L 453.13 225.75 L 452.63 225.75 L 452.25 225.75 L 452.00 225.75 L 451.31 226.13 L 450.19 226.88 Z" />
  </g>
</svg>
